<svg width="12" height="15" viewBox="0 0 12 15" fill="none" xmlns="http://www.w3.org/2000/svg">
<path fill-rule="evenodd" clip-rule="evenodd" d="M6.35156 0C3.319 0 0.851562 2.58282 0.851562 5.75719C0.851562 9.98801 6.35259 15 6.35259 15C6.35259 15 11.8516 10.0049 11.8516 5.75719C11.8516 2.58282 9.38412 0 6.35156 0ZM6.35156 3.23842C5.02263 3.23842 3.94531 4.36611 3.94531 5.75719C3.94531 7.14827 5.02263 8.27596 6.35156 8.27596C7.6805 8.27596 8.75781 7.14827 8.75781 5.75719C8.75781 4.36611 7.6805 3.23842 6.35156 3.23842Z" fill="url(#paint0_linear_116_34)"/>
<path fill-rule="evenodd" clip-rule="evenodd" d="M0.851562 5.75719C0.851562 2.58282 3.319 0 6.35156 0C9.38412 0 11.8516 2.58282 11.8516 5.75719C11.8516 10.0049 6.35259 15 6.35259 15C6.35259 15 0.851562 9.98801 0.851562 5.75719ZM3.94531 5.75719C3.94531 4.36611 5.02263 3.23842 6.35156 3.23842C7.6805 3.23842 8.75781 4.36611 8.75781 5.75719C8.75781 7.14827 7.6805 8.27596 6.35156 8.27596C5.02263 8.27596 3.94531 7.14827 3.94531 5.75719Z" fill="url(#paint1_linear_116_34)"/>
<defs>
<linearGradient id="paint0_linear_116_34" x1="0.851562" y1="0" x2="14.435" y2="2.9002" gradientUnits="userSpaceOnUse">
<stop stop-color="#AE68FA"/>
<stop offset="1" stop-color="#F1966E"/>
</linearGradient>
<linearGradient id="paint1_linear_116_34" x1="0.851562" y1="0" x2="14.435" y2="2.9002" gradientUnits="userSpaceOnUse">
<stop stop-color="#AE68FA"/>
<stop offset="1" stop-color="#F1966E"/>
</linearGradient>
</defs>
</svg>
